<svg width="26" height="26" viewBox="0 0 26 26" fill="none" xmlns="http://www.w3.org/2000/svg">
<path d="M13 0C10.4288 0 7.91543 0.762437 5.77759 2.1909C3.63975 3.61935 1.97351 5.64968 0.989572 8.02512C0.0056327 10.4006 -0.251811 13.0144 0.249797 15.5362C0.751405 18.0579 1.98953 20.3743 3.80762 22.1924C5.6257 24.0105 7.94208 25.2486 10.4638 25.7502C12.9856 26.2518 15.5995 25.9944 17.9749 25.0104C20.3503 24.0265 22.3807 22.3603 23.8091 20.2224C25.2376 18.0846 26 15.5712 26 13C25.9964 9.5533 24.6256 6.24882 22.1884 3.81163C19.7512 1.37445 16.4467 0.00363977 13 0ZM6.26001 21.6875C6.98342 20.5561 7.98001 19.625 9.15791 18.9801C10.3358 18.3351 11.6571 17.9971 13 17.9971C14.3429 17.9971 15.6642 18.3351 16.8421 18.9801C18.02 19.625 19.0166 20.5561 19.74 21.6875C17.8129 23.1862 15.4413 23.9999 13 23.9999C10.5587 23.9999 8.18709 23.1862 6.26001 21.6875ZM9.00001 12C9.00001 11.2089 9.2346 10.4355 9.67413 9.77772C10.1137 9.11992 10.7384 8.60723 11.4693 8.30448C12.2002 8.00173 13.0044 7.92252 13.7804 8.07686C14.5563 8.2312 15.269 8.61216 15.8284 9.17157C16.3878 9.73098 16.7688 10.4437 16.9231 11.2196C17.0775 11.9956 16.9983 12.7998 16.6955 13.5307C16.3928 14.2616 15.8801 14.8864 15.2223 15.3259C14.5645 15.7654 13.7911 16 13 16C11.9391 16 10.9217 15.5786 10.1716 14.8284C9.42143 14.0783 9.00001 13.0609 9.00001 12ZM21.22 20.3013C20.1047 18.6851 18.5365 17.4348 16.7125 16.7075C17.6923 15.9358 18.4072 14.878 18.7579 13.6811C19.1086 12.4843 19.0776 11.2079 18.6693 10.0294C18.2609 8.851 17.4955 7.82911 16.4794 7.10586C15.4634 6.38262 14.2472 5.99397 13 5.99397C11.7528 5.99397 10.5366 6.38262 9.52058 7.10586C8.50452 7.82911 7.73909 8.851 7.33074 10.0294C6.92238 11.2079 6.8914 12.4843 7.24209 13.6811C7.59279 14.878 8.30774 15.9358 9.28751 16.7075C7.46353 17.4348 5.89529 18.6851 4.78001 20.3013C3.37072 18.7165 2.4496 16.7581 2.12756 14.6619C1.80553 12.5657 2.09631 10.4211 2.9649 8.48637C3.83349 6.55163 5.24285 4.90922 7.02326 3.75692C8.80368 2.60462 10.8792 1.99156 13 1.99156C15.1208 1.99156 17.1963 2.60462 18.9768 3.75692C20.7572 4.90922 22.1665 6.55163 23.0351 8.48637C23.9037 10.4211 24.1945 12.5657 23.8724 14.6619C23.5504 16.7581 22.6293 18.7165 21.22 20.3013Z" fill="#E53939"/>
</svg>
